# xmcd CD database file
#
# Track frame offsets:
#	150
#	12520
#	26387
#	49947
#	66830
#	86980
#	102280
#	115727
#	135602
#	152865
#	165490
#	180880
#	198042
#	211887
#	224640
#	237225
#	251662
#	265500
#	279652
#	291755
#	307842
#	331657
#	333477
#
# Disc length: 4670 seconds
#
# Revision: 0
# Processed by: cddbd v1.5.1PL0 Copyright (c) Steve Scherf et al.
# Submitted via: CDex 1.51
#
DISCID=44123c17
DTITLE=Gunter Gabriel - Freiheit ist ein Abenteuer [CD 1)
DYEAR=2004
DGENRE=Country
TTITLE0=Big Bad John
TTITLE1=Detroit City
TTITLE2=Mein anderes Ich und ich
TTITLE3=Freiheit ist ein Abenteuer
TTITLE4=Fünf Uhr morgens
TTITLE5=Ich nehm' Dich so, wie Du bist
TTITLE6=Wär ich doch nur ein Rolling Stone
TTITLE7=Er ist ein Kerl
TTITLE8=Hallo, mein Freund
TTITLE9=Wenn ich nur ein Maler wär
TTITLE10=Ich werd' gesucht
TTITLE11=Freiheit ist ein Abenteuer (Teil 2)
TTITLE12=Bleib ruhig, Mann
TTITLE13=Dies ist mein Land
TTITLE14=Das ist meine Art zu leben (König der Tramps)
TTITLE15=Der alte Mann und sein großes Haus
TTITLE16=Hey Boss, ich brauch' mehr Geld
TTITLE17=Jeder Mann braucht eine Frau
TTITLE18=Draußen vor der Tür
TTITLE19=Mach das LIcht aus
TTITLE20=Man nannte ihn Puma
TTITLE21=20-Sekunden-Lied
TTITLE22=Hey, Yvonne
EXTD=YEAR: 2004
EXTT0=
EXTT1=
EXTT2=
EXTT3=
EXTT4=
EXTT5=
EXTT6=
EXTT7=
EXTT8=
EXTT9=
EXTT10=
EXTT11=
EXTT12=
EXTT13=
EXTT14=
EXTT15=
EXTT16=
EXTT17=
EXTT18=
EXTT19=
EXTT20=
EXTT21=
EXTT22=
PLAYORDER=
